<svg width="111" height="63" viewBox="0 0 111 63" fill="none" xmlns="http://www.w3.org/2000/svg">
<path d="M30.0817 26.0703C30.0154 25.45 29.736 24.9671 29.2436 24.6214C28.7559 24.2758 28.1214 24.103 27.3402 24.103C26.791 24.103 26.3198 24.1858 25.9268 24.3516C25.5339 24.5173 25.2332 24.7422 25.0249 25.0263C24.8165 25.3104 24.71 25.6347 24.7053 25.9993C24.7053 26.3023 24.7739 26.5651 24.9112 26.7876C25.0533 27.0102 25.245 27.1996 25.4865 27.3558C25.728 27.5073 25.9955 27.6352 26.2891 27.7393C26.5826 27.8435 26.8786 27.9311 27.1768 28.0021L28.5405 28.343C29.0897 28.4709 29.6177 28.6437 30.1243 28.8615C30.6357 29.0793 31.0926 29.3539 31.495 29.6854C31.9022 30.0168 32.2242 30.4169 32.4609 30.8857C32.6977 31.3544 32.8161 31.9036 32.8161 32.5334C32.8161 33.3857 32.5982 34.1361 32.1626 34.7848C31.727 35.4287 31.0973 35.933 30.2734 36.2976C29.4543 36.6574 28.4624 36.8374 27.2976 36.8374C26.166 36.8374 25.1835 36.6622 24.3501 36.3118C23.5215 35.9614 22.8729 35.45 22.4041 34.7777C21.9401 34.1054 21.6892 33.2862 21.6513 32.3203H24.2436C24.2815 32.8269 24.4377 33.2483 24.7124 33.5845C24.987 33.9207 25.3445 34.1716 25.7848 34.3374C26.2299 34.5031 26.727 34.5859 27.2763 34.5859C27.8492 34.5859 28.3511 34.5007 28.782 34.3303C29.2176 34.1551 29.5585 33.9136 29.8047 33.6058C30.0509 33.2933 30.1764 32.9287 30.1811 32.5121C30.1764 32.1333 30.0651 31.8208 29.8473 31.5746C29.6295 31.3236 29.3241 31.1153 28.9311 30.9496C28.5429 30.7791 28.0883 30.6276 27.5675 30.495L25.9126 30.0689C24.7147 29.7611 23.7678 29.2947 23.0717 28.6697C22.3804 28.04 22.0348 27.2043 22.0348 26.1626C22.0348 25.3056 22.2668 24.5552 22.7308 23.9112C23.1996 23.2673 23.8364 22.7678 24.6413 22.4126C25.4463 22.0528 26.3577 21.8729 27.3757 21.8729C28.4079 21.8729 29.3123 22.0528 30.0888 22.4126C30.87 22.7678 31.4832 23.2625 31.9283 23.897C32.3733 24.5268 32.603 25.2512 32.6172 26.0703H30.0817ZM42.0046 32.0291V25.7081H44.5756V36.6172H42.0827V34.6783H41.9691C41.7229 35.2891 41.3181 35.7886 40.7546 36.1768C40.1959 36.5651 39.507 36.7592 38.6879 36.7592C37.9729 36.7592 37.3408 36.6006 36.7915 36.2834C36.247 35.9614 35.8209 35.495 35.5131 34.8842C35.2054 34.2687 35.0515 33.5253 35.0515 32.6541V25.7081H37.6225V32.2564C37.6225 32.9477 37.8119 33.4969 38.1907 33.9041C38.5695 34.3113 39.0666 34.5149 39.6822 34.5149C40.061 34.5149 40.4279 34.4226 40.783 34.2379C41.1381 34.0533 41.4293 33.7786 41.6566 33.4141C41.8886 33.0447 42.0046 32.5831 42.0046 32.0291ZM47.3331 36.6172V22.0717H49.9041V27.5121H50.0107C50.1432 27.2469 50.3303 26.9652 50.5717 26.6669C50.8132 26.3639 51.1399 26.1058 51.5518 25.8928C51.9638 25.675 52.4893 25.5661 53.1286 25.5661C53.9714 25.5661 54.7313 25.7815 55.4084 26.2124C56.0902 26.6385 56.63 27.2706 57.0277 28.1087C57.4302 28.942 57.6314 29.9647 57.6314 31.1768C57.6314 32.3748 57.4349 33.3928 57.0419 34.2308C56.6489 35.0689 56.1139 35.7081 55.4368 36.1484C54.7597 36.5888 53.9927 36.8089 53.1357 36.8089C52.5107 36.8089 51.9922 36.7048 51.5803 36.4964C51.1683 36.2881 50.8369 36.0372 50.5859 35.7436C50.3397 35.4453 50.148 35.1636 50.0107 34.8984H49.8615V36.6172H47.3331ZM49.8544 31.1626C49.8544 31.8681 49.9538 32.486 50.1527 33.0163C50.3563 33.5466 50.6475 33.9609 51.0263 34.2592C51.4098 34.5528 51.8738 34.6996 52.4183 34.6996C52.9865 34.6996 53.4624 34.5481 53.8459 34.245C54.2294 33.9373 54.5182 33.5182 54.7124 32.9879C54.9112 32.4529 55.0107 31.8445 55.0107 31.1626C55.0107 30.4856 54.9136 29.8842 54.7195 29.3587C54.5253 28.8331 54.2365 28.4212 53.853 28.1229C53.4695 27.8246 52.9912 27.6754 52.4183 27.6754C51.8691 27.6754 51.4027 27.8198 51.0192 28.1087C50.6357 28.3975 50.3445 28.8023 50.1456 29.3232C49.9515 29.844 49.8544 30.4571 49.8544 31.1626ZM59.8171 36.6172V25.7081H62.2745V27.5618H62.4023C62.6296 26.9368 63.006 26.4491 63.5316 26.0987C64.0572 25.7436 64.6845 25.5661 65.4137 25.5661C66.1523 25.5661 66.775 25.746 67.2816 26.1058C67.793 26.4609 68.1528 26.9463 68.3612 27.5618H68.4748C68.7163 26.9557 69.1235 26.4728 69.6964 26.1129C70.274 25.7483 70.9582 25.5661 71.7489 25.5661C72.7527 25.5661 73.5719 25.8833 74.2063 26.5178C74.8408 27.1522 75.158 28.0779 75.158 29.2947V36.6172H72.5799V29.6925C72.5799 29.0154 72.4 28.5206 72.0401 28.2081C71.6803 27.8909 71.2399 27.7322 70.7191 27.7322C70.0988 27.7322 69.6135 27.9264 69.2631 28.3146C68.9175 28.6982 68.7447 29.1977 68.7447 29.8132V36.6172H66.2234V29.5859C66.2234 29.0225 66.0529 28.5727 65.712 28.2365C65.3758 27.9003 64.9355 27.7322 64.391 27.7322C64.0217 27.7322 63.6855 27.8269 63.3825 28.0163C63.0794 28.201 62.8379 28.4638 62.658 28.8047C62.4781 29.1409 62.3881 29.5339 62.3881 29.9837V36.6172H59.8171ZM77.7663 36.6172V25.7081H80.3374V36.6172H77.7663ZM79.0589 24.1598C78.6518 24.1598 78.3014 24.0249 78.0078 23.755C77.7143 23.4803 77.5675 23.1513 77.5675 22.7678C77.5675 22.3795 77.7143 22.0504 78.0078 21.7805C78.3014 21.5059 78.6518 21.3686 79.0589 21.3686C79.4709 21.3686 79.8213 21.5059 80.1101 21.7805C80.4036 22.0504 80.5504 22.3795 80.5504 22.7678C80.5504 23.1513 80.4036 23.4803 80.1101 23.755C79.8213 24.0249 79.4709 24.1598 79.0589 24.1598ZM88.4286 25.7081V27.6967H82.1573V25.7081H88.4286ZM83.7056 23.0945H86.2766V33.3359C86.2766 33.6816 86.3287 33.9467 86.4329 34.1314C86.5418 34.3113 86.6838 34.4344 86.859 34.5007C87.0342 34.567 87.2283 34.6001 87.4414 34.6001C87.6024 34.6001 87.7492 34.5883 87.8817 34.5646C88.0191 34.541 88.1232 34.5196 88.1942 34.5007L88.6275 36.5107C88.4902 36.558 88.2937 36.6101 88.038 36.6669C87.7871 36.7237 87.4793 36.7569 87.1147 36.7663C86.4708 36.7853 85.8907 36.6882 85.3746 36.4751C84.8585 36.2573 84.449 35.9212 84.146 35.4666C83.8477 35.0121 83.7009 34.4439 83.7056 33.7621V23.0945Z" fill="#FFCD53"/>
<path d="M43.522 9.11594C57.1195 9.11594 70.0036 5 83.6524 5C88.6947 5 91.8764 7.96911 96.0003 9.80193C100.728 11.9032 102.883 19.0164 104.042 23.5217C105.453 29.0116 105.982 35.2808 104.042 40.519C102.742 44.0292 98.0955 48.7343 94.6283 50.2753C88.5387 52.9818 84.0543 55.6508 77.2118 56.4111C67.616 57.4773 57.7645 57.1352 48.0953 57.1352C39.0001 57.1352 30.3448 53.0651 21.5704 50.8089C19.0951 50.1724 16.2953 49.6576 14.0245 48.5222C11.8237 47.4218 10.5886 44.7815 8.87957 43.0724C5.88427 40.0771 5.79261 36.4293 5.79261 32.4396C5.79261 29.2906 4.85782 24.391 7.01215 21.9973C9.37051 19.3769 12.2868 17.3782 15.3965 15.8234C18.1701 14.4366 21.8012 11.9409 24.6192 11.1358C25.9765 10.748 27.7886 9.55355 29.1163 8.9635C30.8537 8.1913 32.4794 8.20404 34.2231 7.70585C37.2761 6.83356 40.8066 7.05797 44.208 7.05797" stroke="#FFCD53" stroke-width="10" stroke-linecap="round"/>
</svg>
