<?xml version="1.0" encoding="UTF-8"?><svg id="Calque_1" xmlns="http://www.w3.org/2000/svg" viewBox="0 0 362 204"><path d="m139.64,59.34c-19.09-4.66-58.85-14.27-65.13-15.41l22.09,35.13L4.5,91.25l70,19.71-57.27,38.35,57.27-9.32,22.09,47.32,33.32-29.03,36.68,41.22,27.33-41.22,52.41,29.03,11.23-47.32h63.64l-27.33-38,63.64-10.75-63.64-12.19,35.19-35.13-71.5,15.41,12.73-54.84-63.64,54.84-40.05-47.32-26.95,47.32Z" style="fill:#806ae5; stroke:#e078a1; stroke-linejoin:round; stroke-width:9px;"/><path d="m104.76,128.42l-3.18-17.16,11.36-2.11.55,2.99-7.73,1.43.76,4.09,6.98-1.29.55,2.99-6.98,1.29,1.31,7.09-3.63.67Zm12.62-2.34l-3.18-17.16,6.77-1.25c1.3-.24,2.45-.21,3.45.08,1.01.29,1.83.81,2.46,1.56.64.75,1.07,1.69,1.28,2.82.21,1.14.15,2.17-.19,3.08-.34.91-.94,1.66-1.79,2.27-.85.61-1.93,1.03-3.25,1.28l-4.53.84-.54-2.92,3.95-.73c.69-.13,1.25-.33,1.67-.6.42-.28.71-.62.86-1.04.16-.42.19-.92.08-1.48-.1-.57-.31-1.03-.61-1.38-.3-.35-.69-.58-1.19-.7-.5-.12-1.09-.12-1.79.01l-2.45.45,2.63,14.2-3.63.67Zm7.82-9.53l5.71,7.02-4.01.74-5.62-7.04,3.91-.73Zm6.49,6.88l-3.18-17.16,11.56-2.15.55,2.99-7.94,1.47.76,4.09,7.34-1.36.56,2.99-7.34,1.36.76,4.1,7.97-1.48.55,2.99-11.6,2.15Zm13.27-2.46l-3.18-17.16,11.56-2.14.55,2.99-7.94,1.47.76,4.09,7.34-1.36.55,2.99-7.34,1.36.76,4.1,7.97-1.48.56,2.99-11.6,2.15Zm24.59-17.21c-.19-.66-.58-1.14-1.16-1.42-.58-.28-1.3-.34-2.17-.18-.59.11-1.08.29-1.45.53-.38.24-.65.52-.81.85-.16.33-.2.68-.13,1.05.05.31.16.57.34.77.19.2.42.36.71.49.28.12.6.2.95.26.35.06.72.09,1.11.11l1.61.08c.78.03,1.51.12,2.19.29.68.16,1.28.41,1.82.73.53.32.98.74,1.33,1.24.36.51.61,1.12.75,1.83.19,1.05.09,2.01-.3,2.88-.38.86-1.03,1.6-1.95,2.21-.91.6-2.07,1.03-3.46,1.29-1.38.26-2.63.27-3.74.04-1.1-.24-2.02-.72-2.75-1.44-.73-.73-1.22-1.71-1.47-2.94l3.51-.65c.15.57.4,1.02.76,1.35.37.33.81.54,1.34.64.53.1,1.11.09,1.74-.03.61-.11,1.13-.3,1.55-.57.43-.26.73-.58.93-.94.19-.37.25-.75.17-1.17-.07-.39-.25-.69-.52-.91-.27-.22-.64-.38-1.11-.49-.46-.1-1.02-.17-1.68-.21l-1.96-.12c-1.51-.08-2.76-.42-3.73-1.01-.98-.59-1.58-1.52-1.81-2.79-.2-1.04-.09-2,.32-2.88.42-.88,1.08-1.63,1.98-2.25.9-.62,1.98-1.04,3.23-1.28,1.27-.24,2.43-.22,3.46.04,1.04.26,1.89.73,2.57,1.4.67.68,1.12,1.53,1.32,2.55l-3.48.65Zm7.24,11.3l-3.18-17.16,3.63-.67,1.31,7.08,7.37-1.37-1.31-7.08,3.62-.67,3.18,17.16-3.62.67-1.31-7.09-7.37,1.37,1.31,7.09-3.63.67Zm16.87-20.88l3.18,17.16-3.63.67-3.18-17.16,3.63-.67Zm4.99,16.83l-3.18-17.16,6.77-1.26c1.3-.24,2.46-.2,3.46.13,1.01.32,1.83.88,2.48,1.66.65.78,1.08,1.74,1.29,2.88.21,1.14.15,2.19-.18,3.15-.33.96-.92,1.77-1.76,2.43-.84.66-1.92,1.11-3.23,1.35l-4.32.8-.54-2.91,3.73-.69c.7-.13,1.25-.36,1.66-.68.41-.33.69-.73.83-1.2.15-.48.17-1,.07-1.56-.1-.57-.31-1.05-.62-1.43-.3-.39-.71-.66-1.21-.81-.5-.15-1.11-.17-1.81-.04l-2.45.45,2.63,14.2-3.63.67Zm14.1-2.61l-3.18-17.16,6.77-1.26c1.3-.24,2.46-.2,3.46.13,1.01.32,1.83.88,2.48,1.66.65.78,1.08,1.74,1.29,2.88.21,1.14.15,2.19-.18,3.15s-.92,1.77-1.76,2.43c-.84.66-1.92,1.11-3.23,1.35l-4.32.8-.54-2.91,3.73-.69c.7-.13,1.25-.36,1.66-.68.41-.33.69-.73.83-1.2.15-.48.17-1,.07-1.56-.11-.57-.31-1.05-.62-1.43-.3-.39-.71-.66-1.21-.81-.5-.15-1.11-.17-1.81-.04l-2.45.45,2.63,14.2-3.63.67Zm14.54-20.45l3.18,17.16-3.63.67-3.18-17.16,3.63-.67Zm16.16-3l3.18,17.16-3.13.58-9.47-9.42-.13.02,2,10.8-3.63.67-3.18-17.16,3.18-.59,9.41,9.42.15-.03-2-10.79,3.61-.67Zm14.23,3.1c-.19-.39-.42-.71-.7-.99-.27-.28-.58-.5-.93-.66-.34-.17-.72-.27-1.13-.32-.41-.05-.85-.03-1.32.06-.88.16-1.61.52-2.19,1.08-.58.56-.98,1.29-1.19,2.19-.21.89-.21,1.94,0,3.14.22,1.2.59,2.18,1.11,2.95.52.77,1.15,1.32,1.9,1.63.75.31,1.57.38,2.48.22.82-.15,1.49-.43,2.02-.82.53-.4.9-.9,1.11-1.5.21-.59.25-1.26.12-1.99l.76-.03-4.43.82-.51-2.73,7.18-1.33.4,2.16c.28,1.51.2,2.86-.23,4.07-.44,1.2-1.16,2.19-2.17,2.99-1.01.79-2.24,1.32-3.68,1.58-1.61.3-3.09.21-4.44-.28-1.35-.49-2.49-1.33-3.41-2.51-.92-1.19-1.55-2.69-1.89-4.5-.26-1.39-.29-2.67-.09-3.83.21-1.17.6-2.2,1.19-3.1.59-.9,1.34-1.63,2.23-2.21.9-.58,1.91-.97,3.05-1.18.97-.18,1.9-.21,2.8-.08.89.12,1.71.38,2.45.78.75.39,1.39.91,1.94,1.54.54.63.95,1.35,1.23,2.18l-3.69.68Z" style="fill:#dcdddf; stroke-width:0px;"/></svg>