<?xml version="1.0" encoding="UTF-8"?>
<svg width="274px" height="403px" viewBox="0 0 274 403" version="1.1" xmlns="http://www.w3.org/2000/svg" xmlns:xlink="http://www.w3.org/1999/xlink">
    <!-- Generator: Sketch 53.2 (72643) - https://sketchapp.com -->
    <title>section3-meet gg pik-portal</title>
    <desc>Created with Sketch.</desc>
    <g id="Page-1" stroke="none" stroke-width="1" fill="none" fill-rule="evenodd">
        <g id="section3-meet-gg-pik-portal" fill-rule="nonzero">
            <polygon id="Path" fill="#11151C" points="0.4405 72.356 4.3852 67.254 25.6924 73.89 25.901 73.62 15.159 53.3199 19.1037 48.2182 41.2021 66.826 38.1089 70.826 22.9307 58.0379 22.7743 58.2402 32.9614 77.346 30.6589 80.323 10.5996 73.917 10.4345 74.131 25.6321 86.963 22.5389 90.963"></polygon>
            <path d="M50.6386,58.7416 C49.0016,60.1927 47.3037,61.096 45.5448,61.4513 C43.7788,61.8005 42.0446,61.6198 40.3422,60.9092 C38.6397,60.1862 37.0655,58.9545 35.6196,57.214 C34.1953,55.5046 33.2661,53.7199 32.832,51.86 C32.3907,49.9939 32.449,48.1865 33.0069,46.4379 C33.5648,44.6768 34.6196,43.1084 36.1715,41.7326 C37.1778,40.8406 38.2675,40.163 39.4409,39.6997 C40.6071,39.2302 41.8215,39.0314 43.0843,39.1034 C44.3471,39.1753 45.6157,39.5681 46.8902,40.2817 C48.1575,40.9891 49.3955,42.0737 50.6041,43.5355 L51.618,44.7245 L38.2253,56.5971 L36.0135,53.9681 L45.7074,45.3745 C45.0886,44.6188 44.3824,44.0849 43.5885,43.7729 C42.7875,43.4546 41.9704,43.3702 41.1371,43.5195 C40.3038,43.6688 39.5151,44.0732 38.7711,44.7328 C38.0128,45.405 37.5016,46.2031 37.2372,47.1271 C36.9728,48.0387 36.9259,48.9581 37.0966,49.8853 C37.2673,50.8125 37.6332,51.623 38.1945,52.3168 L40.2774,54.872 C41.1548,55.9 42.0334,56.5947 42.9131,56.956 C43.7929,57.3173 44.6705,57.3795 45.546,57.1427 C46.4214,56.9058 47.2914,56.4042 48.1559,55.6378 C48.7228,55.1353 49.1683,54.6025 49.4922,54.0394 C49.8162,53.4763 50.0082,52.8923 50.068,52.2875 C50.1277,51.6702 50.0519,51.0476 49.8406,50.4199 L53.768,47.6532 C54.34,48.8267 54.609,50.0553 54.575,51.3391 C54.535,52.6167 54.187,53.8903 53.533,55.1599 C52.879,56.417 51.914,57.6109 50.6386,58.7416 Z" id="Path" fill="#11151C"></path>
            <path d="M67.499,45.6596 C65.643,46.8166 63.821,47.4211 62.032,47.4732 C60.238,47.5179 58.565,47.0438 57.015,46.051 C55.467,45.0457 54.132,43.559 53.01,41.5908 C51.904,39.6569 51.297,37.7329 51.19,35.8188 C51.076,33.8974 51.443,32.1191 52.291,30.484 C53.141,28.8366 54.446,27.4644 56.206,26.3676 C57.347,25.6563 58.534,25.1714 59.766,24.9129 C60.991,24.647 62.218,24.6571 63.446,24.9433 C64.674,25.2294 65.853,25.8341 66.982,26.7571 C68.106,27.6729 69.136,28.9568 70.072,30.6089 L70.864,31.958 L55.675,41.4241 L53.953,38.4463 L64.948,31.5946 C64.469,30.7415 63.867,30.093 63.141,29.6491 C62.409,29.1979 61.621,28.9751 60.777,28.981 C59.933,28.9868 59.089,29.2526 58.245,29.7785 C57.385,30.3145 56.746,31.017 56.328,31.8863 C55.912,32.7432 55.708,33.6449 55.717,34.5913 C55.726,35.5377 55.946,36.4019 56.379,37.1839 L57.986,40.0667 C58.672,41.2332 59.416,42.0701 60.218,42.5774 C61.02,43.0847 61.871,43.2957 62.772,43.2104 C63.672,43.1252 64.613,42.777 65.593,42.166 C66.236,41.7653 66.765,41.314 67.18,40.812 C67.594,40.31 67.883,39.7649 68.045,39.1767 C68.21,38.5762 68.242,37.9473 68.142,37.2902 L72.474,35.2216 C72.834,36.48 72.888,37.7415 72.635,39.0059 C72.376,40.2631 71.817,41.464 70.956,42.6087 C70.098,43.7411 68.946,44.7581 67.499,45.6596 Z" id="Path" fill="#11151C"></path>
            <path d="M80.152,15.2976 L81.493,19.0254 L69.988,23.9832 L68.633,20.261 L80.152,15.2976 Z M69.69,14.1462 L74.412,12.1114 L81.35,31.2979 C81.594,31.9411 81.872,32.3954 82.184,32.6608 C82.5,32.9143 82.843,33.0331 83.212,33.0174 C83.591,32.998 83.976,32.9039 84.367,32.7353 C84.654,32.6116 84.912,32.4748 85.141,32.3249 C85.365,32.1668 85.544,32.0435 85.678,31.955 L87.863,35.3658 C87.622,35.5719 87.286,35.8294 86.855,36.1382 C86.433,36.4433 85.891,36.7483 85.231,37.0534 C84.045,37.5952 82.904,37.8717 81.807,37.8829 C80.715,37.882 79.743,37.5779 78.892,36.9706 C78.045,36.3513 77.395,35.4011 76.942,34.1199 L69.69,14.1462 Z" id="Shape" fill="#11151C"></path>
            <path d="M116.371,9.0699 C116.139,8.3273 115.836,7.675 115.461,7.113 C115.086,6.5418 114.632,6.0761 114.1,5.716 C113.566,5.3465 112.952,5.0926 112.256,4.9542 C111.561,4.8158 110.776,4.8035 109.903,4.9173 C108.354,5.1192 106.95,5.6981 105.693,6.6539 C104.435,7.6098 103.442,8.9034 102.712,10.5347 C101.981,12.1568 101.62,14.0645 101.63,16.258 C101.643,18.4701 101.975,20.3019 102.626,21.7534 C103.277,23.2049 104.195,24.2542 105.38,24.9013 C106.574,25.5378 107.973,25.7515 109.579,25.5423 C111.053,25.3502 112.344,24.8958 113.45,24.1791 C114.556,23.4624 115.416,22.5393 116.03,21.4097 C116.651,20.2695 116.951,18.9899 116.93,17.5709 L118.116,17.6025 L110.27,18.6247 L110.281,14.4724 L121.986,12.9472 L121.983,16.4688 C122,18.9858 121.485,21.2285 120.439,23.197 C119.4,25.1549 117.959,26.7501 116.115,27.9828 C114.279,29.2048 112.168,29.9713 109.783,30.282 C107.135,30.6271 104.804,30.3249 102.789,29.3755 C100.782,28.4156 99.216,26.8878 98.09,24.792 C96.963,22.6869 96.395,20.0891 96.386,16.9985 C96.366,14.6346 96.68,12.4801 97.327,10.535 C97.984,8.5887 98.903,6.8897 100.086,5.4379 C101.276,3.9755 102.674,2.801 104.279,1.9143 C105.883,1.0183 107.628,0.4473 109.516,0.2014 C111.103,-0.0054 112.589,0.0396 113.974,0.3362 C115.357,0.6236 116.586,1.1314 117.661,1.8597 C118.745,2.5868 119.635,3.5014 120.332,4.6034 C121.029,5.7054 121.483,6.963 121.696,8.3762 L116.371,9.0699 Z" id="Path" fill="#11151C"></path>
            <path d="M151.285,11.8457 C151.334,11.078 151.283,10.3762 151.132,9.7402 C150.983,9.095 150.721,8.5281 150.347,8.0395 C149.975,7.5417 149.484,7.1308 148.874,6.8068 C148.264,6.4828 147.524,6.2535 146.654,6.1189 C145.11,5.8802 143.567,6.039 142.026,6.5952 C140.485,7.1515 139.072,8.1008 137.786,9.4432 C136.503,10.7763 135.467,12.4827 134.68,14.5625 C133.888,16.6607 133.537,18.4874 133.628,20.0425 C133.718,21.5975 134.209,22.8459 135.099,23.7875 C136,24.7214 137.251,25.312 138.852,25.5593 C140.321,25.7865 141.711,25.7142 143.022,25.3425 C144.332,24.9708 145.484,24.3352 146.477,23.4358 C147.481,22.5285 148.231,21.4001 148.726,20.0504 L149.84,20.4093 L142.021,19.2007 L143.541,15.2718 L155.206,17.0751 L153.923,20.4087 C153.024,22.7968 151.721,24.7777 150.012,26.3514 C148.315,27.9172 146.367,29.028 144.169,29.6836 C141.982,30.3315 139.7,30.4717 137.323,30.1042 C134.684,29.6963 132.581,28.7633 131.013,27.3054 C129.457,25.8396 128.525,23.9583 128.218,21.6615 C127.913,19.3553 128.318,16.7378 129.432,13.8087 C130.273,11.5648 131.353,9.6117 132.674,7.9494 C134.005,6.2886 135.495,4.9348 137.145,3.8881 C138.806,2.8336 140.56,2.1092 142.406,1.7149 C144.254,1.3114 146.118,1.2551 148,1.5458 C149.581,1.7903 150.975,2.2452 152.182,2.9103 C153.391,3.5662 154.373,4.388 155.129,5.3758 C155.893,6.3651 156.406,7.4782 156.667,8.715 C156.928,9.9518 156.903,11.2688 156.591,12.666 L151.285,11.8457 Z" id="Path" fill="#11151C"></path>
            <path d="M167.795,36.6524 L181.628,21.7971 L185.6,23.827 L171.779,38.6888 L167.795,36.6524 Z M166.369,27.448 L169.521,24.0844 L187.026,33.0314 L183.874,36.395 L166.369,27.448 Z" id="Shape" fill="#11151C"></path>
            <path d="M187.245,49.2124 L212.903,33.4335 L221.066,40.6701 C222.738,42.1526 223.776,43.6243 224.179,45.0853 C224.589,46.54 224.444,47.9222 223.743,49.2319 C223.049,50.5354 221.882,51.689 220.241,52.6929 C218.601,53.7091 216.846,54.3476 214.975,54.6084 C213.112,54.8753 211.238,54.7248 209.352,54.1567 C207.473,53.5824 205.694,52.5509 204.015,51.0621 L198.605,46.2659 L202.43,43.9195 L207.309,48.2445 C208.286,49.1114 209.288,49.6981 210.312,50.0045 C211.344,50.3172 212.36,50.39 213.36,50.2227 C214.359,50.0554 215.314,49.6915 216.224,49.1311 C217.126,48.5643 217.776,47.9366 218.173,47.2478 C218.57,46.559 218.647,45.8181 218.403,45.025 C218.174,44.2321 217.566,43.399 216.581,42.5258 L212.967,39.3221 L191.188,52.7083 L187.245,49.2124 Z" id="Path" fill="#11151C"></path>
            <path d="M204.939,64.645 L225.35,54.9825 L228.792,58.8028 L208.381,68.465 L204.939,64.645 Z M230.149,55.6812 C229.598,55.0691 229.368,54.4069 229.459,53.6947 C229.55,52.9824 229.934,52.4336 230.611,52.0482 C231.287,51.6627 232.061,51.5466 232.931,51.6997 C233.809,51.8598 234.52,52.2424 235.065,52.8475 C235.616,53.4596 235.843,54.1183 235.746,54.8235 C235.655,55.5357 235.271,56.0846 234.594,56.47 C233.924,56.8624 233.151,56.9786 232.273,56.8184 C231.403,56.6653 230.695,56.2862 230.149,55.6812 Z" id="Shape" fill="#11151C"></path>
            <path d="M219.502,71.939 L225.5,69.677 L225.992,70.338 L239.187,73.484 L242.779,78.302 L226.619,74.457 L225.991,73.615 L219.502,71.939 Z M210.079,70.668 L238.249,60.1505 L241.322,64.273 L213.153,74.79 L210.079,70.668 Z M218.264,81.646 L223.633,72.362 L229.217,73.838 L221.94,86.577 L218.264,81.646 Z" id="Shape" fill="#11151C"></path>
            <path d="M254.623,84.146 L233.992,89.525 L231.624,85.646 L251.773,79.478 L254.623,84.146 Z M224.204,90.396 C223.75,89.653 223.65,88.91 223.903,88.169 C224.156,87.428 224.688,86.89 225.497,86.554 C226.289,86.227 227.126,86.216 228.007,86.521 C228.889,86.827 229.551,87.343 229.995,88.071 C230.434,88.79 230.532,89.528 230.289,90.286 C230.051,91.051 229.539,91.585 228.754,91.889 C228.202,92.104 227.628,92.175 227.031,92.1 C226.439,92.033 225.892,91.852 225.392,91.556 C224.891,91.26 224.495,90.873 224.204,90.396 Z" id="Shape" fill="#11151C"></path>
            <path d="M26.071,306.061 C33.5621,380.008 107.967,398.804 142.45,396.159 C224.494,396.159 256.599,274.783 258.828,271.982 C294.5,172.079 201.754,76.846 203.091,82.448 C177.675,37.1646 103.211,49.7692 101.427,50.7029 C50.0602,50.7029 24.4361,111.08 18.0449,141.269 C-4.2498,203.825 26.9628,302.327 26.071,306.061 Z" id="Path" stroke="#806AE5" stroke-width="13" fill="#E078A1"></path>
        </g>
    </g>
</svg>