<?xml version="1.0" encoding="UTF-8"?>
<svg width="334px" height="277px" viewBox="0 0 334 277" version="1.1" xmlns="http://www.w3.org/2000/svg" xmlns:xlink="http://www.w3.org/1999/xlink">
    <!-- Generator: Sketch 53.2 (72643) - https://sketchapp.com -->
    <title>section3-text bubble</title>
    <desc>Created with Sketch.</desc>
    <g id="Page-1" stroke="none" stroke-width="1" fill="none" fill-rule="evenodd">
        <g id="section3-text-bubble" transform="translate(1.000000, 2.000000)" fill-rule="nonzero" stroke="#11151C" stroke-width="2">
            <path d="M234.663,15.1309 C220.995,4.5011 105.831,1.2689 85.513,10.127 C54.0247,3.8999 45.8014,15.1309 40.7219,15.1309 C-1.7605,-2.3758 -2.8379,40.6627 1.9337,64.3703 L1.9337,123.595 C1.9337,144.341 -1.8139,184.794 1.9337,219.716 C5.333,251.393 24.868,256.905 36.1043,250.391 L85.513,258.989 C95.056,261.855 118.483,268.681 135.846,273.058 C153.208,277.435 191.104,265.502 207.881,258.989 C230.046,259.771 273.636,260.865 270.681,258.989 C325.631,286.345 320.09,233.978 324.708,231.633 C329.325,229.288 328.864,94.853 324.708,94.071 C335.421,10.2835 269.142,6.5328 234.663,15.1309 Z" id="Path" fill="#E078A1"></path>
            <path d="M240.086,9.7919 C226.626,-0.4822 113.218,-3.6063 93.21,4.9555 C62.2011,-1.0633 54.1032,9.7919 49.1012,9.7919 C7.2664,-7.129 6.2054,34.4695 10.9042,57.3839 L10.9042,122.759 C8.479,143.408 10.9042,154.138 10.9042,202.414 C10.9042,233.579 33.4889,243.477 44.5539,237.181 L93.21,245.491 C102.607,248.261 125.677,254.859 142.775,259.089 C159.873,263.32 197.19,251.787 213.712,245.491 C235.539,246.247 278.465,247.304 275.555,245.491 C329.667,271.932 324.211,221.317 328.758,219.05 C333.305,216.784 332.85,86.846 328.758,86.091 C344.844,-8.9655 274.039,1.4815 240.086,9.7919 Z" id="Path" fill="#DCDDDF"></path>
        </g>
    </g>
</svg>