<?xml version="1.0" encoding="UTF-8"?>
<svg width="559px" height="547px" viewBox="0 0 559 547" version="1.1" xmlns="http://www.w3.org/2000/svg" xmlns:xlink="http://www.w3.org/1999/xlink">
    <!-- Generator: Sketch 53.2 (72643) - https://sketchapp.com -->
    <title>section2-text bubble</title>
    <desc>Created with Sketch.</desc>
    <g id="Page-1" stroke="none" stroke-width="1" fill="none" fill-rule="evenodd">
        <g id="section2-text-bubble" transform="translate(2.000000, 2.000000)" fill-rule="nonzero" stroke="#11151C" stroke-width="3">
            <path d="M152.111,28.1488 C174.387,7.0078 362.071,0.5794 395.183,18.1969 C446.5,5.812 459.902,28.1488 468.18,28.1488 C537.414,-6.66935 539.17,78.9277 531.393,126.078 L542.681,255.101 C546.695,297.59 552.314,397.802 542.681,458.738 C533.049,519.674 494.017,509 475.705,496.046 L395.183,513.146 C379.63,518.845 341.451,532.421 313.156,541.126 C284.86,549.831 223.101,526.1 195.759,513.146 C159.637,514.7 88.5968,516.876 93.413,513.146 C3.8605,567.552 12.8909,463.402 5.3655,458.738 C-2.1598,454.075 -1.40734,186.703 5.3655,185.149 C-12.09346,18.5081 95.922,11.0485 152.111,28.1488 Z" id="Path" fill="#FFCD53"></path>
            <path d="M169.948,19.7722 C191.613,-0.9737 374.16,-7.28192 406.366,10.0063 C456.278,-2.14709 469.313,19.7722 477.365,19.7722 C544.703,-14.39516 546.411,69.6019 538.848,115.871 L549.827,242.482 C553.731,284.177 559.196,382.516 549.827,442.313 C540.458,502.11 502.495,491.636 484.684,478.924 L406.366,495.704 C391.239,501.297 354.105,514.619 326.584,523.161 C299.063,531.704 238.995,508.415 212.401,495.704 C177.267,497.229 108.172,499.365 112.856,495.704 C25.7548,549.094 34.538,446.889 27.2187,442.313 C19.8993,437.737 20.6312,175.363 27.2187,173.838 C10.2376,10.3117 115.296,2.9915 169.948,19.7722 Z" id="Path" fill="#DCDDDF"></path>
        </g>
    </g>
</svg>