<?xml version="1.0" encoding="UTF-8"?>
<svg width="793px" height="395px" viewBox="0 0 793 395" version="1.1" xmlns="http://www.w3.org/2000/svg" xmlns:xlink="http://www.w3.org/1999/xlink">
    <!-- Generator: Sketch 53.2 (72643) - https://sketchapp.com -->
    <title>section3-text bubble</title>
    <desc>Created with Sketch.</desc>
    <g id="Page-1" stroke="none" stroke-width="1" fill="none" fill-rule="evenodd">
        <g id="section3-text-bubble" transform="translate(2.000000, 2.000000)" fill-rule="nonzero" stroke="#11151C" stroke-width="3">
            <path d="M557.326,21.4619 C524.863,6.2878 251.348,1.6738 203.094,14.3189 C128.309,5.4296 108.778,21.4619 96.715,21.4619 C-4.1812,-3.529 -6.7401,57.9088 4.5925,91.752 L4.5925,176.296 C4.5925,205.91 -4.308,263.658 4.5925,313.509 C12.666,358.729 59.061,366.596 85.748,357.299 L203.094,369.572 C225.759,373.663 281.398,383.407 322.633,389.655 C363.869,395.903 453.871,378.87 493.717,369.572 C546.359,370.687 649.886,372.25 642.868,369.572 C773.374,408.623 760.214,333.868 771.181,330.52 C782.148,327.173 781.051,135.266 771.181,134.15 C796.624,14.5423 639.212,9.1881 557.326,21.4619 Z" id="Path" fill="#E078A1"></path>
            <path d="M570.74,14.01 C538.778,-0.6899 269.476,-5.1598 221.965,7.0902 C148.332,-1.5214 129.103,14.01 117.225,14.01 C17.8833,-10.2 15.3638,49.3179 26.5217,82.103 L26.5217,175.639 C20.7628,205.183 26.5217,220.536 26.5217,289.607 C26.5217,334.197 80.152,348.359 106.427,339.352 L221.965,351.241 C244.281,355.205 299.063,364.644 339.663,370.697 C380.264,376.75 468.879,360.249 508.112,351.241 C559.942,352.322 661.875,353.835 654.965,351.241 C783.461,389.072 770.503,316.653 781.301,313.41 C792.099,310.168 791.019,124.257 781.301,123.176 C819.5,-12.8276 651.365,2.1197 570.74,14.01 Z" id="Path" fill="#DCDDDF"></path>
        </g>
    </g>
</svg>