<?xml version="1.0" encoding="UTF-8"?>
<svg width="479px" height="519px" viewBox="0 0 479 519" version="1.1" xmlns="http://www.w3.org/2000/svg" xmlns:xlink="http://www.w3.org/1999/xlink">
    <!-- Generator: Sketch 53.2 (72643) - https://sketchapp.com -->
    <title>newsletter-modal-frame</title>
    <desc>Created with Sketch.</desc>
    <g id="Page-1" stroke="none" stroke-width="1" fill="none" fill-rule="evenodd">
        <g id="newsletter-modal-frame" transform="translate(3.000000, 3.000000)">
            <path d="M363.372,4.4327 C385.673,-0.2771 408.739,-9.820286 447.472,31.1548 C447.472,29.9774 483.563,38.8077 467.425,274.886 C467.425,278.418 466.545,408.526 473,421.478 C471.728,450.325 456.04,505.901 403.458,497.423 C275.621,516.066 19.1854,533.217 16.1338,452.68 C8.7981,442.476 -4.40611,407.348 1.4624,348.476 C1.4624,343.773 3.5109,141.785 5.2699,134.21 C4.7813,133.935 -20.7065,-1.50146 54.5727,31.1548 C53.399,31.1548 243.654,54.4747 363.372,4.4327 Z" id="Path" fill="#DCDDDF" fill-rule="nonzero"></path>
            <path d="M363.372,4.4327 C385.673,-0.2771 408.739,-9.820286 447.472,31.1548 C447.472,29.9774 483.563,38.8077 467.425,274.886 C467.425,278.418 466.545,408.526 473,421.478 C471.728,450.325 456.04,505.901 403.458,497.423 C275.621,516.066 19.1854,533.217 16.1338,452.68 C8.7981,442.476 -4.40611,407.348 1.4624,348.476 C1.4624,343.766 3.5164,141.246 5.277,134.181 C5.277,136.536 -21.4249,-1.81313 54.5727,31.1548 C53.399,31.1548 243.654,54.4747 363.372,4.4327 Z" id="Path" stroke="#11151C" stroke-width="5"></path>
        </g>
    </g>
</svg>